<svg xmlns="http://www.w3.org/2000/svg" viewBox="0 0 64 64" width="64" height="64" role="img" aria-label="PR favicon">
  <defs>
    <linearGradient id="g" x1="0" x2="1" y1="0" y2="1">
      <stop offset="0%" stop-color="#3c78d8"/>
      <stop offset="100%" stop-color="#2a4fa5"/>
    </linearGradient>
  </defs>
  <rect x="4" y="4" width="56" height="56" rx="12" fill="url(#g)"/>
  <g fill="#ffffff">
    <!-- Monogram PR -->
    <path d="M18 45 V19 h12.5 q5 0 7.8 2.4 t2.8 6.6 q0 4.2 -2.8 6.6 t-7.8 2.4 H26 v8 H18 Z M26 34 h4.3 q2.5 0 3.8 -1.1 t1.3 -3.0 q0 -1.9 -1.3 -3.0 t-3.8 -1.1 H26 V34 Z"/>
    <path d="M41 45 V19 h8.2 q4.0 0 6.0 1.7 t2.0 4.9 q0 2.6 -1.4 4.2 t-3.6 2.2 q1.2 0.5 2.0 1.6 t2.2 3.3 l2.6 4.1 h-8.8 l-2.2 -3.9 q-0.9 -1.6 -1.6 -2.1 t-1.9 -0.5 H49 v6.5 H41 Z M49 29.4 h1.9 q1.7 0 2.5 -0.7 t0.8 -2.0 q0 -1.3 -0.8 -2.0 t-2.5 -0.7 H49 v5.4 Z"/>
  </g>
</svg>

